#!OML:ASF F:\VICON\USERDATA\INSTALL\rory3\rory3.ASF
:FULLY-SPECIFIED
:DEGREES
715
root 5.54986 16.1242 -11.0363 17.8262 25.7677 -5.22276
lowerback -5.09291 -1.52075 -0.761478
upperback -9.7321 -1.73587 3.67747
thorax -7.20409 -0.609635 4.31337
lowerneck -2.31091 -2.04784 -1.80608
upperneck 21.6167 -2.80129 1.35038
head 7.01452 -1.32912 0.561505
rclavicle 2.38107e-014 -3.73715e-014
rhumerus 93.0896 -31.3659 -161.132
rradius 3.41774
rwrist 6.07411
rhand -5.17951 2.91199
rfingers 7.12502
rthumb 20.6209 -26.0127
lclavicle 2.38107e-014 -3.73715e-014
lhumerus 61.5263 12.9259 108.708
lradius 17.0115
lwrist 20.2119
lhand 21.8691 27.4624
lfingers 7.12502
lthumb 46.2721 50.4428
rfemur -53.5276 35.1484 -27.785
rtibia 40.159
rfoot -78.5012 26.2058
rtoes 62.0566
lfemur -45.8486 5.87177 -28.2649
ltibia 49.4316
lfoot -25.7346 5.41388
ltoes -28.29
716
root 5.54504 16.1104 -11.0425 17.9703 25.7023 -5.31007
lowerback -4.89078 -1.45355 -0.712958
upperback -10.0233 -1.63956 3.5532
thorax -7.65259 -0.557178 4.17074
lowerneck -2.12703 -2.08581 -1.9661
upperneck 21.6074 -2.85008 1.40351
head 6.98335 -1.36146 0.604465
rclavicle -2.41461e-014 1.31198e-014
rhumerus 97.76 -32.0809 -166.277
rradius 4.10853
rwrist 10.244
rhand -6.02168 2.41412
rfingers 7.12502
rthumb 19.8115 -26.5962
lclavicle -2.41461e-014 1.31198e-014
lhumerus 61.5791 14.6482 109.552
lradius 15.756
lwrist 17.3481
lhand 20.3681 27.8689
lfingers 7.12502
lthumb 44.8779 51.4164
rfemur -51.9549 35.2889 -27.3154
rtibia 39.9948
rfoot -79.0255 26.7599
rtoes 61.8868
lfemur -46.331 6.13422 -28.2898
ltibia 49.7709
lfoot -25.8332 5.06412
ltoes -27.9472
717
root 5.5418 16.0909 -11.0491 18.1514 25.7003 -5.32481
lowerback -4.59551 -1.51409 -0.622544
upperback -10.2917 -1.71303 3.49354
thorax -8.11837 -0.591175 4.07804
lowerneck -2.10136 -1.97864 -2.27683
upperneck 21.6201 -2.68254 1.44625
head 6.98512 -1.30242 0.682057
rclavicle 2.50779e-014 -4.51241e-014
rhumerus 101.908 -32.2323 -171.334
rradius 5.65271
rwrist 14.7881
rhand -6.09967 2.28503
rfingers 7.12502
rthumb 19.7365 -26.733
lclavicle 2.50779e-014 -4.51241e-014
lhumerus 61.952 16.8333 110.472
lradius 14.5235
lwrist 13.8449
lhand 19.2652 28.2924
lfingers 7.12502
lthumb 43.8499 52.2311
rfemur -50.2469 35.1657 -26.6993
rtibia 39.8418
rfoot -79.1832 27.2573
rtoes 61.7497
lfemur -46.7821 6.14765 -28.326
ltibia 50.1058
lfoot -25.9439 4.96625
ltoes -27.789
718
root 5.54046 16.0721 -11.045 18.353 25.6123 -5.30587
lowerback -4.83453 -1.58902 -0.681383
upperback -10.2238 -1.82148 3.46693
thorax -7.89531 -0.64771 4.0735
lowerneck -2.36248 -1.84235 -2.34506
upperneck 21.4935 -2.4605 1.32273
head 6.98485 -1.21148 0.66589
rclavicle -5.67779e-015 -1.63003e-014
rhumerus 106.389 -31.1703 -176.302
rradius 6.30078
rwrist 19.6701
rhand -6.74393 1.88386
rfingers 7.12502
rthumb 19.1171 -27.1966
lclavicle -5.67779e-015 -1.63003e-014
lhumerus 63.7378 19.8025 113.458
lradius 13.095
lwrist 7.10745
lhand 20.08 27.9193
lfingers 7.12502
lthumb 44.6096 51.571
rfemur -48.6515 35.4714 -26.307
rtibia 39.6708
rfoot -79.5739 28.1584
rtoes 61.8706
lfemur -47.1795 6.19149 -28.4001
ltibia 50.4326
lfoot -26.0587 4.98554
ltoes -27.6837
719
root 5.53635 16.058 -11.0395 18.548 25.5753 -5.26139
lowerback -5.1782 -1.61832 -0.821977
upperback -10.0868 -1.87379 3.3767
thorax -7.53976 -0.676275 4.03946
lowerneck -2.72707 -1.80439 -2.27711
upperneck 21.4175 -2.39241 1.23632
head 7.02108 -1.18025 0.627598
rclavicle 1.8108e-015 1.91827e-014
rhumerus 111.122 -29.5267 -181.148
rradius 6.79301
rwrist 24.9224
rhand -6.96549 1.56107
rfingers 7.12502
rthumb 18.904 -27.5403
lclavicle 1.8108e-015 1.91827e-014
lhumerus 65.7568 22.3762 116.641
lradius 12.0515
lwrist 0.58119
lhand 20.8189 27.9393
lfingers 7.12502
lthumb 45.2972 51.3209
rfemur -47.0713 36.2545 -26.0123
rtibia 39.4713
rfoot -80.3116 29.3091
rtoes 61.9305
lfemur -47.5483 6.26172 -28.4891
ltibia 50.7614
lfoot -26.1678 4.94673
ltoes -27.7547
720
root 5.53509 16.0456 -11.0312 18.7355 25.5673 -5.3275
lowerback -5.69355 -1.61514 -0.898292
upperback -9.91464 -1.88082 3.30261
thorax -7.05403 -0.688721 3.97912
lowerneck -3.01359 -1.81736 -2.35517
upperneck 21.2754 -2.4148 1.32281
head 7.02787 -1.19009 0.664498
rclavicle 7.41513e-014 -4.37326e-015
rhumerus 115.87 -27.1837 -185.631
rradius 7.03994
rwrist 29.837
rhand -6.65756 1.75106
rfingers 7.12502
rthumb 19.2001 -27.3212
lclavicle 7.41513e-014 -4.37326e-015
lhumerus 67.5697 24.3369 119.102
lradius 11.2697
lwrist -4.6643
lhand 20.1735 27.7789
lfingers 7.12502
lthumb 44.6967 51.3969
rfemur -45.4915 37.1061 -25.5752
rtibia 39.2462
rfoot -80.9526 29.9523
rtoes 61.8432
lfemur -47.9526 6.33222 -28.4644
ltibia 51.118
lfoot -26.2462 4.72833
ltoes -27.0814
721
root 5.53313 16.0314 -11.02 18.9621 25.463 -5.6182
lowerback -6.56974 -1.59074 -0.840941
upperback -9.62206 -1.85998 3.33243
thorax -6.23886 -0.698923 3.9388
lowerneck -3.16034 -1.85378 -2.5235
upperneck 20.8377 -2.45921 1.39492
head 6.91574 -1.22005 0.711828
rclavicle 1.48265e-014 1.88348e-014
rhumerus 120.65 -24.0485 -189.566
rradius 5.8452
rwrist 34.4664
rhand -7.22502 2.3355
rfingers 7.12502
rthumb 18.6544 -26.7901
lclavicle 1.48265e-014 1.88348e-014
lhumerus 69.8372 26.2066 121.983
lradius 10.5069
lwrist -10.3605
lhand 18.9607 26.9948
lfingers 7.12502
lthumb 43.5657 51.0378
rfemur -44.2034 37.9878 -25.0679
rtibia 38.9832
rfoot -81.2092 30.4267
rtoes 61.8716
lfemur -48.5659 6.33996 -28.1826
ltibia 51.5486
lfoot -26.1986 4.40294
ltoes -25.5498
722
root 5.53457 16.0155 -11.0141 19.3119 25.3218 -5.925
lowerback -7.098 -1.60229 -0.530991
upperback -9.61765 -1.88757 3.30142
thorax -5.94357 -0.738631 3.71398
lowerneck -3.28762 -1.79817 -2.44847
upperneck 20.5012 -2.36417 1.26454
head 6.8248 -1.18061 0.662738
rclavicle 1.04113e-014 -1.74682e-014
rhumerus 124.226 -21.6468 -193.573
rradius 7.05644
rwrist 39.1598
rhand -6.28653 3.26815
rfingers 7.12502
rthumb 19.5569 -25.7682
lclavicle 1.04113e-014 -1.74682e-014
lhumerus 67.0334 24.6145 113.454
lradius 9.82988
lwrist -5.73108
lhand 17.528 27.5557
lfingers 7.12502
lthumb 42.2257 52.0696
rfemur -42.9395 38.2355 -24.3078
rtibia 38.6955
rfoot -80.9484 30.61
rtoes 62.1782
lfemur -49.3297 6.14904 -27.8766
ltibia 52.0252
lfoot -26.2051 4.28381
ltoes -25.0345
723
root 5.53911 15.9955 -11.0105 19.8047 25.1702 -6.14947
lowerback -6.98989 -1.6073 -0.0866715
upperback -10.1824 -1.88945 3.16667
thorax -6.63735 -0.757432 3.34527
lowerneck -3.17262 -1.65058 -2.35144
upperneck 20.5957 -2.16597 1.22323
head 6.82932 -1.08191 0.647706
rclavicle -2.94077e-014 -4.85532e-014
rhumerus 128.142 -19.0032 -197.077
rradius 7.01965
rwrist 44.5966
rhand -6.36392 4.03729
rfingers 7.12502
rthumb 19.4825 -25.0066
lclavicle -2.94077e-014 -4.85532e-014
lhumerus 63.3409 23.1378 104.592
lradius 9.43773
lwrist -0.896059
lhand 16.2252 28.2497
lfingers 7.12502
lthumb 41.0037 53.1649
rfemur -41.6538 37.8594 -23.4254
rtibia 38.3881
rfoot -80.5887 30.5125
rtoes 62.6568
lfemur -50.2089 5.88942 -27.6895
ltibia 52.5325
lfoot -26.3801 4.59335
ltoes -25.1412
724
root 5.54405 15.9777 -10.9999 20.3392 24.9313 -6.23806
lowerback -7.10381 -1.57412 0.143368
upperback -10.5896 -1.84342 3.01582
thorax -7.03434 -0.747142 3.06826
lowerneck -3.2729 -1.56443 -2.67217
upperneck 20.7613 -2.07737 1.55815
head 6.90567 -1.0365 0.814903
rclavicle 2.1475e-014 -4.02539e-014
rhumerus 131.632 -15.8511 -200.132
rradius 7.36335
rwrist 49.338
rhand -6.08527 4.22936
rfingers 7.12502
rthumb 19.7504 -24.7872
lclavicle 2.1475e-014 -4.02539e-014
lhumerus 58.3428 22.1225 95.3569
lradius 11.8558
lwrist 4.62743
lhand 15.0902 29.5249
lfingers 7.12502
lthumb 39.9366 54.7701
rfemur -40.3241 37.1748 -22.4944
rtibia 38.0927
rfoot -80.0545 29.291
rtoes 61.9056
lfemur -51.0063 5.69904 -27.6386
ltibia 53.011
lfoot -26.7756 4.79634
ltoes -23.6359
